# xmcd CD database file
#
# Track frame offsets:
#	150
#	8015
#	38720
#	58915
#	83572
#	96382
#	112730
#	130452
#	145702
#	160025
#	173225
#	188132
#	208795
#	222870
#
# Disc length: 3216 seconds
#
# Revision: 0
# Processed by: cddbd v1.5.2PL0 Copyright (c) Steve Scherf et al.
# Submitted via: CDex 1.70beta2
#
DISCID=ba0c8e0e
DTITLE=Pablo Sgrillo - Ana Marie - Aquarius Age
DYEAR=1999
DGENRE=New Age
TTITLE0=Intro
TTITLE1=Breeze
TTITLE2=Magic Circle
TTITLE3=The Secret of the Golden Flower
TTITLE4=Over the Mountains
TTITLE5=Strange
TTITLE6=Sun
TTITLE7=Lunar Dawn
TTITLE8=Aquarius
TTITLE9=Distant
TTITLE10=Silent ocean
TTITLE11=Puzzle
TTITLE12=Bleeding Tears
TTITLE13=Dreamfields
EXTD=YEAR: 1999
EXTT0=
EXTT1=
EXTT2=
EXTT3=
EXTT4=
EXTT5=
EXTT6=
EXTT7=
EXTT8=
EXTT9=
EXTT10=
EXTT11=
EXTT12=
EXTT13=
PLAYORDER=
